# xmcd
#
# Track frame offsets:
#	182
#	18860
#	33415
#	51430
#
# Disc length: 896 seconds
#
# Revision: 0
# Processed by: cddbd v1.5.1PL0 Copyright (c) Steve Scherf et al.
# Submitted via: dBpowerAMP V4.0
#
DISCID=2a037e04
DTITLE=Brown, James v. Dakeyne - I Got You (I Feel Good) - The Remixes
DYEAR=1900
DGENRE=Blues
TTITLE0=I Got You (I Feel Good) Round 2 (Radio Mix)
TTITLE1=I Got You (I Feel Good) Round 1 (Radio Mix)
TTITLE2=Processed B's
TTITLE3=B-Funked
EXTD=
EXTT0=
EXTT1=
EXTT2=
EXTT3=
PLAYORDER=
